<svg xmlns="http://www.w3.org/2000/svg" xmlns:xlink="http://www.w3.org/1999/xlink" xmlns:inkscape="http://www.inkscape.org/namespaces/inkscape" version="1.1" width="993.94699" height="458.59938" viewBox="0 0 993.94699 458.59938">
<defs>
<g id="font_1_67">
<path transform="matrix(.001,0,0,.001,0,0)" d="M644 673V569C610 599 575 622 537 638 499 653 460 661 418 661 334 661 270 635 226 584 182 533 160 460 160 364 160 268 182 194 226 143 270 92 334 67 418 67 460 67 499 74 537 90 575 105 610 128 644 159V56C609 32 572 15 534 4 496-7 455-13 412-13 302-13 215 20 151 87 87 154 56 246 56 364 56 481 87 573 151 641 215 708 302 742 412 742 456 742 497 736 535 725 573 713 610 696 644 673Z"/>
</g>
<g id="font_1_72">
<path transform="matrix(.001,0,0,.001,0,0)" d="M98 729H197V430H555V729H654V0H555V347H197V0H98V729Z"/>
</g>
<g id="font_1_79">
<path transform="matrix(.001,0,0,.001,0,0)" d="M394 662C322 662 265 635 223 582 181 528 160 456 160 364 160 272 181 199 223 146 265 92 322 66 394 66 465 66 522 92 564 146 606 199 627 272 627 364 627 456 606 528 564 582 522 635 465 662 394 662ZM394 742C496 742 577 707 639 639 700 571 731 479 731 364 731 248 700 157 639 89 577 21 496-13 394-13 291-13 209 21 148 89 86 157 56 248 56 364 56 479 86 571 148 639 209 707 291 742 394 742Z"/>
</g>
<g id="font_1_82">
<path transform="matrix(.001,0,0,.001,0,0)" d="M444 342C465 334 486 319 506 296 526 272 546 240 566 199L666 0H560L467 187C443 235 419 268 397 284 374 300 343 308 304 308H197V0H98V729H321C404 729 466 711 507 677 548 642 569 589 569 519 569 473 558 434 537 404 515 374 484 353 444 342ZM197 648V389H321C368 389 404 400 428 422 452 444 465 476 465 519 465 561 452 593 428 615 404 637 368 648 321 648H197Z"/>
</g>
<g id="font_1_69">
<path transform="matrix(.001,0,0,.001,0,0)" d="M98 729H559V646H197V430H544V347H197V83H568V0H98V729Z"/>
</g>
<g id="font_1_86">
<path transform="matrix(.001,0,0,.001,0,0)" d="M286 0 8 729H111L342 115 573 729H676L398 0H286Z"/>
</g>
<g id="font_1_105">
<path transform="matrix(.001,0,0,.001,0,0)" d="M94 547H184V0H94V547ZM94 760H184V646H94V760Z"/>
</g>
<g id="font_1_115">
<path transform="matrix(.001,0,0,.001,0,0)" d="M443 531V446C417 458 391 468 364 475 336 481 308 485 279 485 234 485 200 478 178 464 156 450 145 430 145 403 145 382 153 366 169 354 185 342 217 330 265 320L296 313C360 299 405 279 432 255 458 230 472 195 472 151 472 100 452 60 412 31 372 1 316-13 246-13 216-13 186-10 154-5 122 0 89 8 54 20V113C87 95 120 82 152 74 184 65 216 61 248 61 290 61 323 68 346 82 368 96 380 117 380 144 380 168 371 187 355 200 339 213 303 226 247 238L216 245C160 257 119 275 95 299 70 323 58 356 58 399 58 450 76 490 112 518 148 546 200 560 268 560 301 560 332 557 362 552 391 547 418 540 443 531Z"/>
</g>
<g id="font_1_84">
<path transform="matrix(.001,0,0,.001,0,0)" d="M-2 729H614V646H355V0H256V646H-2V729Z"/>
</g>
<g id="font_1_114">
<path transform="matrix(.001,0,0,.001,0,0)" d="M411 463C401 469 390 473 378 476 366 478 353 480 339 480 288 480 249 463 222 430 194 397 181 350 181 288V0H91V547H181V462C199 495 224 520 254 536 284 552 321 560 365 560 371 560 378 559 386 559 393 558 401 557 411 555V463Z"/>
</g>
<g id="font_1_97">
<path transform="matrix(.001,0,0,.001,0,0)" d="M343 275C270 275 220 266 192 250 164 233 150 205 150 165 150 133 160 107 181 89 202 70 231 61 267 61 317 61 357 78 387 114 417 149 432 196 432 255V275H343ZM522 312V0H432V83C411 49 385 25 355 10 325-5 287-13 243-13 187-13 142 2 109 33 76 64 60 106 60 159 60 220 80 266 122 298 163 329 224 345 306 345H432V354C432 395 418 427 391 450 364 472 326 484 277 484 245 484 215 480 185 472 155 464 127 453 100 439V522C132 534 164 544 195 550 226 556 256 560 286 560 365 560 424 539 463 498 502 457 522 395 522 312Z"/>
</g>
<g id="font_1_99">
<path transform="matrix(.001,0,0,.001,0,0)" d="M488 526V442C462 456 437 466 411 473 385 480 360 484 334 484 276 484 230 465 198 428 166 391 150 339 150 273 150 206 166 154 198 117 230 80 276 62 334 62 360 62 385 65 411 72 437 79 462 90 488 104V21C462 9 436 0 410-5 383-10 354-13 324-13 242-13 176 12 128 64 79 115 55 185 55 273 55 362 79 432 128 483 177 534 244 560 330 560 358 560 385 557 411 551 437 545 463 537 488 526Z"/>
</g>
<g id="font_1_107">
<path transform="matrix(.001,0,0,.001,0,0)" d="M91 760H181V311L449 547H564L274 291 576 0H459L181 267V0H91V760Z"/>
</g>
<g id="font_1_101">
<path transform="matrix(.001,0,0,.001,0,0)" d="M562 296V252H149C153 190 171 142 205 110 238 78 284 62 344 62 378 62 412 66 444 74 476 82 509 95 541 113V28C509 14 476 3 442-3 408-9 373-13 339-13 251-13 182 12 131 62 80 112 55 181 55 268 55 357 79 428 127 481 175 533 241 560 323 560 397 560 455 536 498 489 540 441 562 377 562 296ZM472 322C471 371 457 410 431 440 404 469 368 484 324 484 274 484 234 469 204 441 174 413 156 373 152 322H472Z"/>
</g>
<g id="font_1_73">
<path transform="matrix(.001,0,0,.001,0,0)" d="M98 729H197V0H98V729Z"/>
</g>
<g id="font_1_45">
<path transform="matrix(.001,0,0,.001,0,0)" d="M49 314H312V234H49V314Z"/>
</g>
<g id="font_1_71">
<path transform="matrix(.001,0,0,.001,0,0)" d="M595 104V300H434V381H693V68C655 40 613 20 567 7 521-6 472-13 420-13 306-13 216 20 152 86 88 152 56 245 56 364 56 482 88 575 152 642 216 708 306 742 420 742 467 742 512 736 555 724 598 712 638 695 674 673V568C637 598 598 621 557 637 516 653 473 661 428 661 338 661 271 636 227 586 182 536 160 462 160 364 160 265 182 191 227 141 271 91 338 67 428 67 462 67 493 70 521 76 549 82 573 91 595 104Z"/>
</g>
<g id="font_1_117">
<path transform="matrix(.001,0,0,.001,0,0)" d="M85 216V547H175V219C175 167 185 129 205 103 225 77 255 64 296 64 344 64 383 79 411 110 439 141 453 183 453 237V547H543V0H453V84C431 50 405 26 377 10 348-5 315-13 277-13 214-13 166 6 134 45 101 83 85 140 85 216ZM311 560V560Z"/>
</g>
<g id="font_1_48">
<path transform="matrix(.001,0,0,.001,0,0)" d="M318 664C267 664 229 639 203 589 177 539 165 464 165 364 165 264 177 189 203 139 229 89 267 64 318 64 369 64 407 89 433 139 458 189 471 264 471 364 471 464 458 539 433 589 407 639 369 664 318 664ZM318 742C399 742 461 709 505 645 548 580 570 486 570 364 570 241 548 147 505 83 461 19 399-13 317-13 235-13 173 19 130 83 87 147 66 241 66 364 66 486 87 580 130 645 173 709 236 742 318 742Z"/>
</g>
<g id="font_1_49">
<path transform="matrix(.001,0,0,.001,0,0)" d="M124 83H285V639L110 604V694L284 729H383V83H544V0H124V83Z"/>
</g>
<g id="font_1_50">
<path transform="matrix(.001,0,0,.001,0,0)" d="M192 83H536V0H73V83C110 121 161 173 226 239 290 304 331 346 348 365 380 400 402 430 414 455 426 479 433 504 433 528 433 566 419 598 392 622 365 646 330 659 286 659 255 659 222 653 188 643 154 632 117 616 78 594V694C118 710 155 722 189 730 223 738 255 742 284 742 359 742 419 723 464 685 509 647 532 597 532 534 532 504 526 475 515 449 504 422 484 390 454 354 446 344 420 317 376 272 332 227 271 164 192 83Z"/>
</g>
<g id="font_1_51">
<path transform="matrix(.001,0,0,.001,0,0)" d="M406 393C453 383 490 362 516 330 542 298 556 258 556 212 556 140 531 84 482 45 432 6 362-13 271-13 240-13 208-10 176-4 144 1 110 10 76 22V117C103 101 133 89 166 81 198 73 232 69 268 69 330 69 377 81 409 105 441 129 458 165 458 212 458 254 443 288 413 312 383 336 341 349 287 349H202V430H291C339 430 376 439 402 459 428 478 441 506 441 543 441 580 427 609 401 629 374 649 336 659 287 659 260 659 231 656 200 650 169 644 135 635 98 623V711C135 721 170 729 203 734 235 739 266 742 296 742 370 742 429 725 473 691 517 657 539 611 539 553 539 513 527 479 504 451 481 423 448 403 406 393Z"/>
</g>
<g id="font_1_52">
<path transform="matrix(.001,0,0,.001,0,0)" d="M378 643 129 254H378V643ZM352 729H476V254H580V172H476V0H378V172H49V267L352 729Z"/>
</g>
<g id="font_1_53">
<path transform="matrix(.001,0,0,.001,0,0)" d="M108 729H495V646H198V467C212 472 227 476 241 478 255 480 270 482 284 482 365 482 429 459 477 415 525 370 549 310 549 234 549 155 524 94 475 51 426 8 357-13 269-13 238-13 207-10 175-6 143-1 111 6 77 17V116C106 100 136 88 168 80 199 72 232 69 267 69 323 69 368 83 401 113 433 143 450 183 450 234 450 284 433 324 401 354 368 384 323 399 267 399 241 399 214 396 188 390 162 384 135 375 108 363V729Z"/>
</g>
<g id="font_1_65">
<path transform="matrix(.001,0,0,.001,0,0)" d="M342 632 208 269H476L342 632ZM286 729H398L676 0H573L507 187H178L112 0H8L286 729Z"/>
</g>
<g id="font_1_108">
<path transform="matrix(.001,0,0,.001,0,0)" d="M94 760H184V0H94V760Z"/>
</g>
<g id="font_1_116">
<path transform="matrix(.001,0,0,.001,0,0)" d="M183 702V547H368V477H183V180C183 135 189 106 201 94 213 81 238 75 276 75H368V0H276C206 0 158 13 132 39 106 65 93 112 93 180V477H27V547H93V702H183Z"/>
</g>
<g id="font_1_111">
<path transform="matrix(.001,0,0,.001,0,0)" d="M306 484C258 484 220 465 192 427 164 389 150 338 150 273 150 207 163 156 191 118 219 80 257 62 306 62 354 62 392 80 420 118 448 156 462 207 462 273 462 337 448 389 420 427 392 465 354 484 306 484ZM306 560C384 560 445 534 490 484 534 433 557 363 557 273 557 183 534 113 490 63 445 12 384-13 306-13 227-13 165 12 121 63 77 113 55 183 55 273 55 363 77 433 121 484 165 534 227 560 306 560Z"/>
</g>
<g id="font_1_110">
<path transform="matrix(.001,0,0,.001,0,0)" d="M549 330V0H459V327C459 379 448 417 428 443 408 469 378 482 338 482 289 482 251 466 223 435 195 404 181 362 181 309V0H91V547H181V462C202 494 227 519 257 535 286 551 320 560 358 560 420 560 468 540 500 501 532 462 549 405 549 330Z"/>
</g>
<g id="font_1_32">
</g>
<g id="font_1_40">
<path transform="matrix(.001,0,0,.001,0,0)" d="M310 759C266 683 234 609 213 536 191 463 181 389 181 314 181 238 191 164 213 91 234 17 266-56 310-131H232C183-54 146 20 122 94 98 168 86 241 86 314 86 386 98 459 122 533 146 607 182 682 232 759H310Z"/>
</g>
<g id="font_1_109">
<path transform="matrix(.001,0,0,.001,0,0)" d="M520 442C542 482 569 511 600 531 631 550 668 560 711 560 767 560 811 540 842 500 873 460 889 403 889 330V0H799V327C799 379 789 418 771 444 752 469 724 482 686 482 639 482 602 466 575 435 548 404 535 362 535 309V0H445V327C445 379 435 418 417 444 398 469 369 482 331 482 285 482 248 466 221 435 194 404 181 362 181 309V0H91V547H181V462C201 495 226 520 255 536 283 552 317 560 357 560 397 560 430 550 458 530 486 510 506 480 520 442Z"/>
</g>
<g id="font_1_47">
<path transform="matrix(.001,0,0,.001,0,0)" d="M254 729H337L83-92H0L254 729Z"/>
</g>
<g id="font_1_41">
<path transform="matrix(.001,0,0,.001,0,0)" d="M80 759H158C206 682 243 607 267 533 291 459 304 386 304 314 304 241 291 168 267 94 243 20 206-54 158-131H80C123-56 155 17 177 91 198 164 209 238 209 314 209 389 198 463 177 536 155 609 123 683 80 759Z"/>
</g>
<clipPath id="clip_2">
<path transform="matrix(1,0,0,-1,0,458.59938)" d="M53.62693 71.91937H511.0387V395.91938H53.62693Z"/>
</clipPath>
<clipPath id="clip_3">
<path transform="matrix(1,0,0,-1,0,458.59938)" d="M53.62693 71.91937H511.0387V395.91938H53.62693Z"/>
</clipPath>
<clipPath id="clip_4">
<path transform="matrix(1,0,0,-1,0,458.59938)" d="M53.62693 71.91937H511.0387V395.91938H53.62693Z"/>
</clipPath>
<clipPath id="clip_5">
<path transform="matrix(1,0,0,-1,0,458.59938)" d="M53.62693 71.91937H511.0387V395.91938H53.62693Z"/>
</clipPath>
<clipPath id="clip_6">
<path transform="matrix(1,0,0,-1,0,458.59938)" d="M53.62693 71.91937H511.0387V395.91938H53.62693Z"/>
</clipPath>
<clipPath id="clip_7">
<path transform="matrix(1,0,0,-1,0,458.59938)" d="M53.62693 71.91937H511.0387V395.91938H53.62693Z"/>
</clipPath>
<clipPath id="clip_8">
<path transform="matrix(1,0,0,-1,0,458.59938)" d="M53.62693 71.91937H511.0387V395.91938H53.62693Z"/>
</clipPath>
<clipPath id="clip_9">
<path transform="matrix(1,0,0,-1,0,458.59938)" d="M53.62693 71.91937H511.0387V395.91938H53.62693Z"/>
</clipPath>
<g id="font_1_46">
<path transform="matrix(.001,0,0,.001,0,0)" d="M107 124H210V0H107V124Z"/>
</g>
<g id="font_1_55">
<path transform="matrix(.001,0,0,.001,0,0)" d="M82 729H551V687L286 0H183L432 646H82V729Z"/>
</g>
<g id="font_1_56">
<path transform="matrix(.001,0,0,.001,0,0)" d="M318 346C271 346 234 333 207 308 180 283 167 249 167 205 167 161 180 126 207 101 234 76 271 64 318 64 364 64 401 76 428 102 455 127 469 161 469 205 469 249 455 283 429 308 402 333 365 346 318 346ZM219 388C177 398 144 418 120 447 96 476 85 511 85 553 85 611 105 657 147 691 188 725 245 742 318 742 390 742 447 725 489 691 530 657 551 611 551 553 551 511 539 476 515 447 491 418 459 398 417 388 464 377 501 355 528 323 554 291 568 251 568 205 568 134 546 80 503 43 459 5 397-13 317-13 237-13 175 5 132 43 89 80 68 134 68 205 68 251 81 291 108 323 134 355 171 377 219 388ZM183 544C183 506 194 476 218 455 242 434 275 424 318 424 360 424 393 434 417 455 441 476 453 506 453 544 453 582 441 611 417 632 393 653 360 664 318 664 275 664 242 653 218 632 194 611 183 582 183 544Z"/>
</g>
<g id="font_1_57">
<path transform="matrix(.001,0,0,.001,0,0)" d="M110 15V105C134 93 159 84 185 78 210 72 235 69 260 69 324 69 374 90 408 134 442 178 462 244 468 334 448 306 424 284 396 269 367 254 335 247 300 247 226 247 168 269 126 313 84 357 63 417 63 494 63 568 85 628 129 674 173 719 232 742 306 742 390 742 455 709 499 645 543 580 566 486 566 364 566 248 538 157 484 89 429 21 356-13 264-13 239-13 214-10 189-6 163-2 137 5 110 15ZM306 324C350 324 385 339 411 369 437 399 450 441 450 494 450 546 437 588 411 618 385 648 350 664 306 664 262 664 227 648 201 618 175 588 162 546 162 494 162 441 175 399 201 369 227 339 262 324 306 324Z"/>
</g>
<g id="font_1_54">
<path transform="matrix(.001,0,0,.001,0,0)" d="M330 404C286 404 251 388 225 358 199 328 186 286 186 234 186 181 199 139 225 109 251 79 286 64 330 64 374 64 409 79 435 109 461 139 474 181 474 234 474 286 461 328 435 358 409 388 374 404 330 404ZM526 713V623C501 635 476 644 451 650 425 656 400 659 376 659 310 659 260 637 226 593 192 549 172 482 168 394 187 422 211 444 240 459 269 474 301 482 336 482 409 482 467 459 509 415 551 371 573 310 573 234 573 159 550 99 506 54 462 9 403-13 330-13 246-13 181 19 137 83 92 147 70 241 70 364 70 479 97 571 152 639 206 707 280 742 372 742 396 742 421 739 447 735 472 730 498 723 526 713Z"/>
</g>
<g id="font_10_40">
<path transform="matrix(.001,0,0,.001,0,0)" d="M377-131H232C182-50 145 26 121 98 97 170 86 241 86 313 86 384 98 456 122 529 146 602 182 679 232 759H377C335 681 303 606 283 532 262 458 252 386 252 314 252 242 262 169 283 95 303 21 335-53 377-131Z"/>
</g>
<g id="font_10_97">
<path transform="matrix(.001,0,0,.001,0,0)" d="M329 246C292 246 264 239 246 227 228 215 219 197 219 173 219 151 226 133 241 121 256 108 277 102 303 102 336 102 364 113 386 137 408 161 420 190 420 226V246H329ZM596 312V0H420V81C396 47 370 23 341 9 311-5 276-13 234-13 177-13 131 3 96 36 60 68 43 111 43 164 43 228 65 275 109 305 153 335 222 350 317 350H420V364C420 391 409 411 387 424 365 437 331 444 285 444 247 444 212 440 180 432 148 424 118 413 91 399V532C128 541 165 548 203 553 241 557 279 560 317 560 415 560 486 540 530 501 574 462 596 399 596 312Z"/>
</g>
<g id="font_10_41">
<path transform="matrix(.001,0,0,.001,0,0)" d="M80-131C122-53 153 21 174 95 194 169 205 242 205 314 205 386 194 458 174 532 153 606 122 681 80 759H225C274 679 311 602 335 529 359 456 371 384 371 313 371 241 359 170 335 98 311 26 275-50 225-131H80Z"/>
</g>
<g id="font_11_104">
<path transform="matrix(.001,0,0,.001,0,0)" d="M557 330 493 0H403L467 327C469 342 471 355 473 367 475 379 476 388 476 395 476 422 467 443 450 459 432 474 408 482 378 482 330 482 288 465 253 433 217 400 194 357 184 303L125 0H35L183 760H273L215 461C237 491 266 515 302 533 337 551 374 560 414 560 462 560 499 547 526 521 552 495 566 458 566 411 566 399 565 387 564 374 562 360 560 346 557 330Z"/>
</g>
<g id="font_11_111">
<path transform="matrix(.001,0,0,.001,0,0)" d="M254-13C190-13 139 6 102 45 64 84 46 138 46 207 46 247 52 287 65 328 77 369 94 404 115 432 147 476 183 508 223 529 263 549 308 560 358 560 420 560 470 540 508 502 546 463 566 412 566 350 566 306 559 263 547 220 534 177 517 142 497 114 465 70 429 37 389 17 349-3 304-13 254-13ZM139 210C139 160 149 123 170 99 190 74 222 62 264 62 324 62 373 88 413 141 453 193 473 260 473 341 473 388 462 424 441 448 420 472 389 484 348 484 314 484 283 476 257 460 231 444 207 420 187 388 171 364 159 336 151 305 143 274 139 242 139 210Z"/>
</g>
<g id="font_1_70">
<path transform="matrix(.001,0,0,.001,0,0)" d="M98 729H517V646H197V431H486V348H197V0H98V729Z"/>
</g>
<g id="font_1_80">
<path transform="matrix(.001,0,0,.001,0,0)" d="M197 648V374H321C367 374 402 385 427 409 452 433 465 467 465 511 465 555 452 588 427 612 402 636 367 648 321 648H197ZM98 729H321C402 729 464 710 506 673 548 636 569 582 569 511 569 439 548 384 506 348 464 311 402 293 321 293H197V0H98V729Z"/>
</g>
<g id="font_1_83">
<path transform="matrix(.001,0,0,.001,0,0)" d="M535 705V609C497 627 462 640 429 649 395 657 363 662 333 662 279 662 237 651 208 631 179 610 165 580 165 542 165 510 174 485 194 469 213 452 250 439 304 429L364 417C437 403 491 378 526 343 561 307 579 260 579 201 579 130 555 77 508 41 460 5 391-13 300-13 265-13 228-9 189-2 150 5 110 16 69 32V134C109 111 148 94 186 83 224 71 262 66 300 66 356 66 399 77 430 99 460 121 476 152 476 194 476 230 465 258 443 278 421 298 385 313 335 323L275 335C201 349 148 372 115 404 82 435 66 478 66 534 66 598 88 649 134 686 179 723 242 742 322 742 356 742 390 739 426 733 461 727 497 717 535 705Z"/>
</g>
<g id="font_1_102">
<path transform="matrix(.001,0,0,.001,0,0)" d="M371 760V685H285C253 685 230 678 218 665 205 652 199 629 199 595V547H347V477H199V0H109V477H23V547H109V585C109 645 123 690 151 718 179 746 224 760 286 760H371Z"/>
</g>
<g id="font_1_112">
<path transform="matrix(.001,0,0,.001,0,0)" d="M181 82V-207H91V547H181V464C199 496 223 520 252 536 281 552 316 560 356 560 422 560 476 533 518 481 559 428 580 359 580 273 580 187 559 117 518 65 476 13 422-13 356-13 316-13 281-5 252 10 223 25 199 49 181 82ZM487 273C487 339 473 390 446 428 418 466 381 485 334 485 286 485 249 466 222 428 194 390 181 339 181 273 181 207 194 155 222 117 249 79 286 61 334 61 381 61 418 79 446 117 473 155 487 207 487 273Z"/>
</g>
<g id="font_1_100">
<path transform="matrix(.001,0,0,.001,0,0)" d="M454 464V760H544V0H454V82C435 49 411 25 382 10 353-5 319-13 279-13 213-13 159 13 117 65 75 117 55 187 55 273 55 359 75 428 117 481 159 533 213 560 279 560 319 560 353 552 382 536 411 520 435 496 454 464ZM148 273C148 207 161 155 188 117 215 79 252 61 300 61 348 61 385 79 413 117 440 155 454 207 454 273 454 339 440 390 413 428 385 466 348 485 300 485 252 485 215 466 188 428 161 390 148 339 148 273Z"/>
</g>
<clipPath id="clip_12">
<path transform="matrix(1,0,0,-1,0,458.59938)" d="M53.62693 71.91937H511.0387V395.91938H53.62693Z"/>
</clipPath>
<clipPath id="clip_13">
<path transform="matrix(1,0,0,-1,113.75354,369.03053)" d="M-9.2426409-9.2426409H9.2426409V9.2426409H-9.2426409Z"/>
</clipPath>
<clipPath id="clip_14">
<path transform="matrix(1,0,0,-1,226.13973,369.20106)" d="M-9.2426409-9.2426409H9.2426409V9.2426409H-9.2426409Z"/>
</clipPath>
<clipPath id="clip_15">
<path transform="matrix(1,0,0,-1,338.5259,328.61579)" d="M-9.2426409-9.2426409H9.2426409V9.2426409H-9.2426409Z"/>
</clipPath>
<clipPath id="clip_16">
<path transform="matrix(1,0,0,-1,450.9121,101.048419)" d="M-9.2426409-9.2426409H9.2426409V9.2426409H-9.2426409Z"/>
</clipPath>
<clipPath id="clip_17">
<path transform="matrix(1,0,0,-1,0,458.59938)" d="M643.6881 71.91937H986.74697V395.91938H643.6881Z"/>
</clipPath>
<clipPath id="clip_18">
<path transform="matrix(1,0,0,-1,0,458.59938)" d="M643.6881 71.91937H986.74697V395.91938H643.6881Z"/>
</clipPath>
<clipPath id="clip_19">
<path transform="matrix(1,0,0,-1,0,458.59938)" d="M643.6881 71.91937H986.74697V395.91938H643.6881Z"/>
</clipPath>
<clipPath id="clip_20">
<path transform="matrix(1,0,0,-1,0,458.59938)" d="M643.6881 71.91937H986.74697V395.91938H643.6881Z"/>
</clipPath>
<clipPath id="clip_21">
<path transform="matrix(1,0,0,-1,0,458.59938)" d="M643.6881 71.91937H986.74697V395.91938H643.6881Z"/>
</clipPath>
<clipPath id="clip_22">
<path transform="matrix(1,0,0,-1,0,458.59938)" d="M643.6881 71.91937H986.74697V395.91938H643.6881Z"/>
</clipPath>
<clipPath id="clip_23">
<path transform="matrix(1,0,0,-1,0,458.59938)" d="M643.6881 71.91937H986.74697V395.91938H643.6881Z"/>
</clipPath>
<clipPath id="clip_24">
<path transform="matrix(1,0,0,-1,0,458.59938)" d="M643.6881 71.91937H986.74697V395.91938H643.6881Z"/>
</clipPath>
<clipPath id="clip_25">
<path transform="matrix(1,0,0,-1,0,458.59938)" d="M643.6881 71.91937H986.74697V395.91938H643.6881Z"/>
</clipPath>
<clipPath id="clip_26">
<path transform="matrix(1,0,0,-1,0,458.59938)" d="M643.6881 71.91937H986.74697V395.91938H643.6881Z"/>
</clipPath>
<clipPath id="clip_27">
<path transform="matrix(1,0,0,-1,0,458.59938)" d="M643.6881 71.91937H986.74697V395.91938H643.6881Z"/>
</clipPath>
<clipPath id="clip_28">
<path transform="matrix(1,0,0,-1,0,458.59938)" d="M643.6881 71.91937H986.74697V395.91938H643.6881Z"/>
</clipPath>
<clipPath id="clip_29">
<path transform="matrix(1,0,0,-1,0,458.59938)" d="M643.6881 71.91937H986.74697V395.91938H643.6881Z"/>
</clipPath>
<clipPath id="clip_30">
<path transform="matrix(1,0,0,-1,0,458.59938)" d="M643.6881 71.91937H986.74697V395.91938H643.6881Z"/>
</clipPath>
<clipPath id="clip_31">
<path transform="matrix(1,0,0,-1,0,458.59938)" d="M643.6881 71.91937H986.74697V395.91938H643.6881Z"/>
</clipPath>
<g id="font_1_68">
<path transform="matrix(.001,0,0,.001,0,0)" d="M197 648V81H316C416 81 490 103 537 149 583 195 607 267 607 365 607 463 583 534 537 580 490 625 416 648 316 648H197ZM98 729H301C442 729 546 699 612 641 678 582 711 490 711 365 711 239 677 147 611 88 545 29 441 0 301 0H98V729Z"/>
</g>
<g id="font_11_99">
<path transform="matrix(.001,0,0,.001,0,0)" d="M536 526 518 437C496 452 473 464 449 472 425 480 400 484 374 484 345 484 318 479 292 469 266 459 244 444 227 426 199 397 177 364 162 326 146 288 139 248 139 208 139 158 151 122 176 98 200 74 238 62 288 62 312 62 339 65 367 73 395 80 424 91 454 107L437 18C411 7 384 0 356-5 328-10 300-13 272-13 199-13 143 5 104 41 65 77 46 128 46 196 46 252 56 304 76 352 96 400 127 443 167 481 194 507 226 526 263 540 299 553 340 560 384 560 409 560 434 557 459 551 484 545 510 537 536 526Z"/>
</g>
<g id="font_10_98">
<path transform="matrix(.001,0,0,.001,0,0)" d="M375 113C412 113 440 126 460 154 480 181 490 221 490 273 490 325 480 364 460 392 440 419 412 433 375 433 337 433 309 419 289 392 269 364 259 325 259 273 259 221 269 181 289 154 309 126 337 113 375 113ZM259 467C283 499 309 522 339 537 368 552 402 560 440 560 507 560 562 533 606 479 649 425 671 356 671 272 671 188 649 119 606 66 562 13 507-13 440-13 402-13 368-5 339 9 309 23 283 47 259 79V0H84V760H259V467Z"/>
</g>
<clipPath id="clip_32">
<path transform="matrix(1,0,0,-1,0,458.59938)" d="M643.6881 71.91937H986.74697V395.91938H643.6881Z"/>
</clipPath>
<clipPath id="clip_33">
<path transform="matrix(1,0,0,-1,0,458.59938)" d="M643.6881 71.91937H986.74697V395.91938H643.6881Z"/>
</clipPath>
<clipPath id="clip_34">
<path transform="matrix(1,0,0,-1,0,458.59938)" d="M643.6881 71.91937H986.74697V395.91938H643.6881Z"/>
</clipPath>
<clipPath id="clip_35">
<path transform="matrix(1,0,0,-1,0,458.59938)" d="M643.6881 71.91937H986.74697V395.91938H643.6881Z"/>
</clipPath>
</defs>
<path transform="matrix(1,0,0,-1,0,458.59938)" d="M0 0H993.94699V458.59938H0Z" fill="#ffffff"/>
<path transform="matrix(1,0,0,-1,0,458.59938)" d="M53.62693 71.91937H511.0387V395.91938H53.62693Z" fill="#ffffff"/>
<use data-text="C" xlink:href="#font_1_67" transform="matrix(20,0,0,-20,78.1051,405.38313)" fill="#262626"/>
<use data-text="H" xlink:href="#font_1_72" transform="matrix(20,0,0,-20,92.0651,405.38313)" fill="#262626"/>
<use data-text="O" xlink:href="#font_1_79" transform="matrix(20,0,0,-20,107.1051,405.38313)" fill="#262626"/>
<use data-text="R" xlink:href="#font_1_82" transform="matrix(20,0,0,-20,122.84511,405.38313)" fill="#262626"/>
<use data-text="E" xlink:href="#font_1_69" transform="matrix(20,0,0,-20,136.7451,405.38313)" fill="#262626"/>
<use data-text="V" xlink:href="#font_1_86" transform="matrix(20,0,0,-20,175.53035,405.38313)" fill="#262626"/>
<use data-text="i" xlink:href="#font_1_105" transform="matrix(20,0,0,-20,188.77286,405.38313)" fill="#262626"/>
<use data-text="s" xlink:href="#font_1_115" transform="matrix(20,0,0,-20,194.33286,405.38313)" fill="#262626"/>
<use data-text="T" xlink:href="#font_1_84" transform="matrix(20,0,0,-20,204.75286,405.38313)" fill="#262626"/>
<use data-text="r" xlink:href="#font_1_114" transform="matrix(20,0,0,-20,214.03536,405.38313)" fill="#262626"/>
<use data-text="a" xlink:href="#font_1_97" transform="matrix(20,0,0,-20,222.25536,405.38313)" fill="#262626"/>
<use data-text="c" xlink:href="#font_1_99" transform="matrix(20,0,0,-20,234.51535,405.38313)" fill="#262626"/>
<use data-text="k" xlink:href="#font_1_107" transform="matrix(20,0,0,-20,245.51535,405.38313)" fill="#262626"/>
<use data-text="e" xlink:href="#font_1_101" transform="matrix(20,0,0,-20,256.3922,405.38313)" fill="#262626"/>
<use data-text="r" xlink:href="#font_1_114" transform="matrix(20,0,0,-20,268.69224,405.38313)" fill="#262626"/>
<use data-text="H" xlink:href="#font_1_72" transform="matrix(20,0,0,-20,303.6431,405.38313)" fill="#262626"/>
<use data-text="O" xlink:href="#font_1_79" transform="matrix(20,0,0,-20,318.6831,405.38313)" fill="#262626"/>
<use data-text="I" xlink:href="#font_1_73" transform="matrix(20,0,0,-20,334.4231,405.38313)" fill="#262626"/>
<use data-text="-" xlink:href="#font_1_45" transform="matrix(20,0,0,-20,340.3231,405.38313)" fill="#262626"/>
<use data-text="T" xlink:href="#font_1_84" transform="matrix(20,0,0,-20,345.71498,405.38313)" fill="#262626"/>
<use data-text="G" xlink:href="#font_1_71" transform="matrix(20,0,0,-20,357.93498,405.38313)" fill="#262626"/>
<use data-text="O" xlink:href="#font_1_79" transform="matrix(20,0,0,-20,427.38084,405.38313)" fill="#262626"/>
<use data-text="u" xlink:href="#font_1_117" transform="matrix(20,0,0,-20,443.12083,405.38313)" fill="#262626"/>
<use data-text="r" xlink:href="#font_1_114" transform="matrix(20,0,0,-20,455.80085,405.38313)" fill="#262626"/>
<use data-text="s" xlink:href="#font_1_115" transform="matrix(20,0,0,-20,464.02085,405.38313)" fill="#262626"/>
<use data-text="0" xlink:href="#font_1_48" transform="matrix(16,0,0,-16,39.93943,392.75813)" fill="#262626"/>
<use data-text="1" xlink:href="#font_1_49" transform="matrix(16,0,0,-16,39.93943,327.95814)" fill="#262626"/>
<use data-text="2" xlink:href="#font_1_50" transform="matrix(16,0,0,-16,39.93943,263.1581)" fill="#262626"/>
<use data-text="3" xlink:href="#font_1_51" transform="matrix(16,0,0,-16,39.93943,198.35813)" fill="#262626"/>
<use data-text="4" xlink:href="#font_1_52" transform="matrix(16,0,0,-16,39.93943,133.5581)" fill="#262626"/>
<use data-text="5" xlink:href="#font_1_53" transform="matrix(16,0,0,-16,39.93943,68.75812)" fill="#262626"/>
<use data-text="A" xlink:href="#font_1_65" transform="matrix(0,-20,-20,-0,30.830056,354.68)" fill="#262626"/>
<use data-text="c" xlink:href="#font_1_99" transform="matrix(0,-20,-20,-0,30.830056,340.99836)" fill="#262626"/>
<use data-text="c" xlink:href="#font_1_99" transform="matrix(0,-20,-20,-0,30.830056,330.00227)" fill="#262626"/>
<use data-text="e" xlink:href="#font_1_101" transform="matrix(0,-20,-20,-0,30.830056,319.00617)" fill="#262626"/>
<use data-text="l" xlink:href="#font_1_108" transform="matrix(0,-20,-20,-0,30.830056,306.70149)" fill="#262626"/>
<use data-text="e" xlink:href="#font_1_101" transform="matrix(0,-20,-20,-0,30.830056,301.14485)" fill="#262626"/>
<use data-text="r" xlink:href="#font_1_114" transform="matrix(0,-20,-20,-0,30.830056,288.84016)" fill="#262626"/>
<use data-text="a" xlink:href="#font_1_97" transform="matrix(0,-20,-20,-0,30.830056,280.6175)" fill="#262626"/>
<use data-text="t" xlink:href="#font_1_116" transform="matrix(0,-20,-20,-0,30.830056,268.36164)" fill="#262626"/>
<use data-text="i" xlink:href="#font_1_105" transform="matrix(0,-20,-20,-0,30.830056,260.51985)" fill="#262626"/>
<use data-text="o" xlink:href="#font_1_111" transform="matrix(0,-20,-20,-0,30.830056,254.9632)" fill="#262626"/>
<use data-text="n" xlink:href="#font_1_110" transform="matrix(0,-20,-20,-0,30.830056,242.72687)" fill="#262626"/>
<use data-text=" " xlink:href="#font_1_32" transform="matrix(0,-20,-20,-0,30.830056,230.05109)" fill="#262626"/>
<use data-text="E" xlink:href="#font_1_69" transform="matrix(0,-20,-20,-0,30.830056,223.69367)" fill="#262626"/>
<use data-text="r" xlink:href="#font_1_114" transform="matrix(0,-20,-20,-0,30.830056,211.05695)" fill="#262626"/>
<use data-text="r" xlink:href="#font_1_114" transform="matrix(0,-20,-20,-0,30.830056,202.83429)" fill="#262626"/>
<use data-text="o" xlink:href="#font_1_111" transform="matrix(0,-20,-20,-0,30.830056,194.61164)" fill="#262626"/>
<use data-text="r" xlink:href="#font_1_114" transform="matrix(0,-20,-20,-0,30.830056,182.3753)" fill="#262626"/>
<use data-text=" " xlink:href="#font_1_32" transform="matrix(0,-20,-20,-0,30.830056,174.15265)" fill="#262626"/>
<use data-text="(" xlink:href="#font_1_40" transform="matrix(0,-20,-20,-0,30.830056,167.79523)" fill="#262626"/>
<use data-text="c" xlink:href="#font_1_99" transform="matrix(0,-20,-20,-0,30.830056,159.9925)" fill="#262626"/>
<use data-text="m" xlink:href="#font_1_109" transform="matrix(0,-20,-20,-0,30.830056,148.9964)" fill="#262626"/>
<use data-text="/" xlink:href="#font_1_47" transform="matrix(0,-20,-20,-0,30.830056,129.51398)" fill="#262626"/>
<use data-text="s" xlink:href="#font_1_115" transform="matrix(0,-20,-20,-0,30.830056,122.775699)" fill="#262626"/>
<use data-text="2" xlink:href="#font_1_50" transform="matrix(0,-14,-14,-0,23.173806,112.16437)" fill="#262626"/>
<use data-text=")" xlink:href="#font_1_41" transform="matrix(0,-20,-20,-0,30.830056,102.710269)" fill="#262626"/>
<path transform="matrix(1,0,0,-1,0,458.59938)" stroke-width="1.25" stroke-linecap="square" stroke-miterlimit="10" stroke-linejoin="miter" fill="none" stroke="#262626" d="M53.62693 71.91937V395.91938"/>
<path transform="matrix(1,0,0,-1,0,458.59938)" stroke-width="1.25" stroke-linecap="square" stroke-miterlimit="10" stroke-linejoin="miter" fill="none" stroke="#262626" d="M511.0387 71.91937V395.91938"/>
<path transform="matrix(1,0,0,-1,0,458.59938)" stroke-width="1.25" stroke-linecap="square" stroke-miterlimit="10" stroke-linejoin="miter" fill="none" stroke="#262626" d="M53.62693 71.91937H511.0387"/>
<path transform="matrix(1,0,0,-1,0,458.59938)" stroke-width="1.25" stroke-linecap="square" stroke-miterlimit="10" stroke-linejoin="miter" fill="none" stroke="#262626" d="M53.62693 395.91938H511.0387"/>
<g clip-path="url(#clip_2)">
<g>
<path transform="matrix(1,0,0,-1,0,458.59938)" d="M74.41837 71.91937H113.75354V250.11937H74.41837Z" fill="#3498db" fill-opacity=".85"/>
<path transform="matrix(1,0,0,-1,0,458.59938)" stroke-width="1" stroke-linecap="butt" stroke-miterlimit="10" stroke-linejoin="miter" fill="none" stroke="#000000" stroke-opacity=".85" d="M74.41837 71.91937H113.75354V250.11937H74.41837Z"/>
</g>
</g>
<g clip-path="url(#clip_3)">
<g>
<path transform="matrix(1,0,0,-1,0,458.59938)" d="M186.80455 71.91937H226.13973V125.70338H186.80455Z" fill="#3498db" fill-opacity=".85"/>
<path transform="matrix(1,0,0,-1,0,458.59938)" stroke-width="1" stroke-linecap="butt" stroke-miterlimit="10" stroke-linejoin="miter" fill="none" stroke="#000000" stroke-opacity=".85" d="M186.80455 71.91937H226.13973V125.70338H186.80455Z"/>
</g>
</g>
<g clip-path="url(#clip_4)">
<g>
<path transform="matrix(1,0,0,-1,0,458.59938)" d="M299.19075 71.91937H338.5259V230.03137H299.19075Z" fill="#3498db" fill-opacity=".85"/>
<path transform="matrix(1,0,0,-1,0,458.59938)" stroke-width="1" stroke-linecap="butt" stroke-miterlimit="10" stroke-linejoin="miter" fill="none" stroke="#000000" stroke-opacity=".85" d="M299.19075 71.91937H338.5259V230.03137H299.19075Z"/>
</g>
</g>
<g clip-path="url(#clip_5)">
<g>
<path transform="matrix(1,0,0,-1,0,458.59938)" d="M411.57695 71.91937H450.91209V123.111377H411.57695Z" fill="#3498db" fill-opacity=".85"/>
<path transform="matrix(1,0,0,-1,0,458.59938)" stroke-width="1" stroke-linecap="butt" stroke-miterlimit="10" stroke-linejoin="miter" fill="none" stroke="#000000" stroke-opacity=".85" d="M411.57695 71.91937H450.91209V123.111377H411.57695Z"/>
</g>
</g>
<g clip-path="url(#clip_6)">
<g>
<path transform="matrix(1,0,0,-1,0,458.59938)" d="M113.75354 71.91937H153.0887V369.35139H113.75354Z" fill="#95a5a6" fill-opacity=".85"/>
<path transform="matrix(1,0,0,-1,0,458.59938)" stroke-width="1" stroke-linecap="butt" stroke-miterlimit="10" stroke-linejoin="miter" fill="none" stroke="#000000" stroke-opacity=".85" d="M113.75354 71.91937H153.0887V369.35139H113.75354Z"/>
</g>
</g>
<g clip-path="url(#clip_7)">
<g>
<path transform="matrix(1,0,0,-1,0,458.59938)" d="M226.13973 71.91937H265.47489V150.32738H226.13973Z" fill="#95a5a6" fill-opacity=".85"/>
<path transform="matrix(1,0,0,-1,0,458.59938)" stroke-width="1" stroke-linecap="butt" stroke-miterlimit="10" stroke-linejoin="miter" fill="none" stroke="#000000" stroke-opacity=".85" d="M226.13973 71.91937H265.47489V150.32738H226.13973Z"/>
</g>
</g>
<g clip-path="url(#clip_8)">
<g>
<path transform="matrix(1,0,0,-1,0,458.59938)" d="M338.5259 71.91937H377.86106V315.56739H338.5259Z" fill="#95a5a6" fill-opacity=".85"/>
<path transform="matrix(1,0,0,-1,0,458.59938)" stroke-width="1" stroke-linecap="butt" stroke-miterlimit="10" stroke-linejoin="miter" fill="none" stroke="#000000" stroke-opacity=".85" d="M338.5259 71.91937H377.86106V315.56739H338.5259Z"/>
</g>
</g>
<g clip-path="url(#clip_9)">
<g>
<path transform="matrix(1,0,0,-1,0,458.59938)" d="M450.91209 71.91937H490.24726V138.01538H450.91209Z" fill="#95a5a6" fill-opacity=".85"/>
<path transform="matrix(1,0,0,-1,0,458.59938)" stroke-width="1" stroke-linecap="butt" stroke-miterlimit="10" stroke-linejoin="miter" fill="none" stroke="#000000" stroke-opacity=".85" d="M450.91209 71.91937H490.24726V138.01538H450.91209Z"/>
</g>
</g>
<use data-text="2" xlink:href="#font_1_50" transform="matrix(16,0,0,-16,76.25783,202.15186)" fill="#262626"/>
<use data-text="." xlink:href="#font_1_46" transform="matrix(16,0,0,-16,86.43383,202.15186)" fill="#262626"/>
<use data-text="7" xlink:href="#font_1_55" transform="matrix(16,0,0,-16,91.52183,202.15186)" fill="#262626"/>
<use data-text="5" xlink:href="#font_1_53" transform="matrix(16,0,0,-16,101.69783,202.15186)" fill="#262626"/>
<use data-text="0" xlink:href="#font_1_48" transform="matrix(16,0,0,-16,188.64402,326.56788)" fill="#262626"/>
<use data-text="." xlink:href="#font_1_46" transform="matrix(16,0,0,-16,198.82,326.56788)" fill="#262626"/>
<use data-text="8" xlink:href="#font_1_56" transform="matrix(16,0,0,-16,203.90802,326.56788)" fill="#262626"/>
<use data-text="3" xlink:href="#font_1_51" transform="matrix(16,0,0,-16,214.08402,326.56788)" fill="#262626"/>
<use data-text="2" xlink:href="#font_1_50" transform="matrix(16,0,0,-16,301.03019,222.23987)" fill="#262626"/>
<use data-text="." xlink:href="#font_1_46" transform="matrix(16,0,0,-16,311.20619,222.23987)" fill="#262626"/>
<use data-text="4" xlink:href="#font_1_52" transform="matrix(16,0,0,-16,316.2942,222.23987)" fill="#262626"/>
<use data-text="4" xlink:href="#font_1_52" transform="matrix(16,0,0,-16,326.47019,222.23987)" fill="#262626"/>
<use data-text="0" xlink:href="#font_1_48" transform="matrix(16,0,0,-16,413.41639,329.15986)" fill="#262626"/>
<use data-text="." xlink:href="#font_1_46" transform="matrix(16,0,0,-16,423.59239,329.15986)" fill="#262626"/>
<use data-text="7" xlink:href="#font_1_55" transform="matrix(16,0,0,-16,428.6804,329.15986)" fill="#262626"/>
<use data-text="9" xlink:href="#font_1_57" transform="matrix(16,0,0,-16,438.85639,329.15986)" fill="#262626"/>
<use data-text="4" xlink:href="#font_1_52" transform="matrix(16,0,0,-16,115.592998,82.91986)" fill="#262626"/>
<use data-text="." xlink:href="#font_1_46" transform="matrix(16,0,0,-16,125.769,82.91986)" fill="#262626"/>
<use data-text="5" xlink:href="#font_1_53" transform="matrix(16,0,0,-16,130.857,82.91986)" fill="#262626"/>
<use data-text="9" xlink:href="#font_1_57" transform="matrix(16,0,0,-16,141.03299,82.91986)" fill="#262626"/>
<use data-text="1" xlink:href="#font_1_49" transform="matrix(16,0,0,-16,227.97917,301.94386)" fill="#262626"/>
<use data-text="." xlink:href="#font_1_46" transform="matrix(16,0,0,-16,238.15517,301.94386)" fill="#262626"/>
<use data-text="2" xlink:href="#font_1_50" transform="matrix(16,0,0,-16,243.24318,301.94386)" fill="#262626"/>
<use data-text="1" xlink:href="#font_1_49" transform="matrix(16,0,0,-16,253.41918,301.94386)" fill="#262626"/>
<use data-text="3" xlink:href="#font_1_51" transform="matrix(16,0,0,-16,340.36537,136.70386)" fill="#262626"/>
<use data-text="." xlink:href="#font_1_46" transform="matrix(16,0,0,-16,350.54136,136.70386)" fill="#262626"/>
<use data-text="7" xlink:href="#font_1_55" transform="matrix(16,0,0,-16,355.62937,136.70386)" fill="#262626"/>
<use data-text="6" xlink:href="#font_1_54" transform="matrix(16,0,0,-16,365.80537,136.70386)" fill="#262626"/>
<use data-text="1" xlink:href="#font_1_49" transform="matrix(16,0,0,-16,452.75157,314.25587)" fill="#262626"/>
<use data-text="." xlink:href="#font_1_46" transform="matrix(16,0,0,-16,462.92756,314.25587)" fill="#262626"/>
<use data-text="0" xlink:href="#font_1_48" transform="matrix(16,0,0,-16,468.01557,314.25587)" fill="#262626"/>
<use data-text="2" xlink:href="#font_1_50" transform="matrix(16,0,0,-16,478.19157,314.25587)" fill="#262626"/>
<use data-text="(" xlink:href="#font_10_40" transform="matrix(20,0,0,-20,266.4422,447.2431)" fill="#262626"/>
<use data-text="a" xlink:href="#font_10_97" transform="matrix(20,0,0,-20,275.5822,447.2431)" fill="#262626"/>
<use data-text=")" xlink:href="#font_10_41" transform="matrix(20,0,0,-20,289.0822,447.2431)" fill="#262626"/>
<g>
<path transform="matrix(1,0,0,-1,0,458.59938)" d="M15.2 424.55564H55.2V438.55564H15.2Z" fill="#3498db" fill-opacity=".85"/>
<path transform="matrix(1,0,0,-1,0,458.59938)" stroke-width="1" stroke-linecap="butt" stroke-miterlimit="10" stroke-linejoin="miter" fill="none" stroke="#000000" stroke-opacity=".85" d="M15.2 424.55564H55.2V438.55564H15.2Z"/>
</g>
<use data-text="A" xlink:href="#font_1_65" transform="matrix(20,0,0,-20,71.2,33.090608)" fill="#262626"/>
<use data-text="c" xlink:href="#font_1_99" transform="matrix(20,0,0,-20,84.88164,33.090608)" fill="#262626"/>
<use data-text="c" xlink:href="#font_1_99" transform="matrix(20,0,0,-20,95.87773,33.090608)" fill="#262626"/>
<use data-text="h" xlink:href="#font_11_104" transform="matrix(14,0,0,-14,107.06523,36.371858)" fill="#262626"/>
<use data-text=" " xlink:href="#font_1_32" transform="matrix(20,0,0,-20,116.48515,33.090608)" fill="#262626"/>
<use data-text="(" xlink:href="#font_1_40" transform="matrix(20,0,0,-20,122.842578,33.090608)" fill="#262626"/>
<use data-text="c" xlink:href="#font_1_99" transform="matrix(20,0,0,-20,130.64531,33.090608)" fill="#262626"/>
<use data-text="m" xlink:href="#font_1_109" transform="matrix(20,0,0,-20,141.6414,33.090608)" fill="#262626"/>
<use data-text="/" xlink:href="#font_1_47" transform="matrix(20,0,0,-20,161.12383,33.090608)" fill="#262626"/>
<use data-text="s" xlink:href="#font_1_115" transform="matrix(20,0,0,-20,167.8621,33.090608)" fill="#262626"/>
<use data-text="2" xlink:href="#font_1_50" transform="matrix(14,0,0,-14,178.47344,25.434357)" fill="#262626"/>
<use data-text=")" xlink:href="#font_1_41" transform="matrix(20,0,0,-20,187.92754,33.090608)" fill="#262626"/>
<g>
<path transform="matrix(1,0,0,-1,0,458.59938)" d="M236.2 424.55564H276.2V438.55564H236.2Z" fill="#95a5a6" fill-opacity=".85"/>
<path transform="matrix(1,0,0,-1,0,458.59938)" stroke-width="1" stroke-linecap="butt" stroke-miterlimit="10" stroke-linejoin="miter" fill="none" stroke="#000000" stroke-opacity=".85" d="M236.2 424.55564H276.2V438.55564H236.2Z"/>
</g>
<use data-text="A" xlink:href="#font_1_65" transform="matrix(20,0,0,-20,292.2,33.090608)" fill="#262626"/>
<use data-text="c" xlink:href="#font_1_99" transform="matrix(20,0,0,-20,305.88166,33.090608)" fill="#262626"/>
<use data-text="c" xlink:href="#font_1_99" transform="matrix(20,0,0,-20,316.87776,33.090608)" fill="#262626"/>
<use data-text="o" xlink:href="#font_11_111" transform="matrix(14,0,0,-14,328.06526,36.371858)" fill="#262626"/>
<use data-text=" " xlink:href="#font_1_32" transform="matrix(20,0,0,-20,337.17756,33.090608)" fill="#262626"/>
<use data-text="(" xlink:href="#font_1_40" transform="matrix(20,0,0,-20,343.53498,33.090608)" fill="#262626"/>
<use data-text="c" xlink:href="#font_1_99" transform="matrix(20,0,0,-20,351.3377,33.090608)" fill="#262626"/>
<use data-text="m" xlink:href="#font_1_109" transform="matrix(20,0,0,-20,362.3338,33.090608)" fill="#262626"/>
<use data-text="/" xlink:href="#font_1_47" transform="matrix(20,0,0,-20,381.81623,33.090608)" fill="#262626"/>
<use data-text="s" xlink:href="#font_1_115" transform="matrix(20,0,0,-20,388.5545,33.090608)" fill="#262626"/>
<use data-text="2" xlink:href="#font_1_50" transform="matrix(14,0,0,-14,399.16584,25.434357)" fill="#262626"/>
<use data-text=")" xlink:href="#font_1_41" transform="matrix(20,0,0,-20,408.61994,33.090608)" fill="#262626"/>
<path transform="matrix(1,0,0,-1,0,458.59938)" stroke-width="2" stroke-linecap="round" stroke-linejoin="round" fill="none" stroke="#e74c3c" d="M457.2 431.55564H477.2 497.2"/>
<path transform="matrix(1,0,0,-1,0,458.59938)" d="M477.2 427.313 481.44264 431.55564 477.2 435.79829 472.95738 431.55564Z" fill="#e74c3c"/>
<path transform="matrix(1,0,0,-1,0,458.59938)" stroke-width="1" stroke-linecap="butt" stroke-miterlimit="10" stroke-linejoin="miter" fill="none" stroke="#e74c3c" d="M477.2 427.313 481.44264 431.55564 477.2 435.79829 472.95738 431.55564Z"/>
<use data-text="F" xlink:href="#font_1_70" transform="matrix(20,0,0,-20,513.2,34.04373)" fill="#262626"/>
<use data-text="P" xlink:href="#font_1_80" transform="matrix(20,0,0,-20,524.7,34.04373)" fill="#262626"/>
<use data-text="S" xlink:href="#font_1_83" transform="matrix(20,0,0,-20,536.76,34.04373)" fill="#262626"/>
<use data-text="0" xlink:href="#font_1_48" transform="matrix(16,0,0,-16,514.5387,375.70549)" fill="#262626"/>
<use data-text="5" xlink:href="#font_1_53" transform="matrix(16,0,0,-16,514.5387,333.0739)" fill="#262626"/>
<use data-text="1" xlink:href="#font_1_49" transform="matrix(16,0,0,-16,514.5387,290.44233)" fill="#262626"/>
<use data-text="0" xlink:href="#font_1_48" transform="matrix(16,0,0,-16,524.7147,290.44233)" fill="#262626"/>
<use data-text="1" xlink:href="#font_1_49" transform="matrix(16,0,0,-16,514.5387,247.81075)" fill="#262626"/>
<use data-text="5" xlink:href="#font_1_53" transform="matrix(16,0,0,-16,524.7147,247.81075)" fill="#262626"/>
<use data-text="2" xlink:href="#font_1_50" transform="matrix(16,0,0,-16,514.5387,205.17917)" fill="#262626"/>
<use data-text="0" xlink:href="#font_1_48" transform="matrix(16,0,0,-16,524.7147,205.17917)" fill="#262626"/>
<use data-text="2" xlink:href="#font_1_50" transform="matrix(16,0,0,-16,514.5387,162.54758)" fill="#262626"/>
<use data-text="5" xlink:href="#font_1_53" transform="matrix(16,0,0,-16,524.7147,162.54758)" fill="#262626"/>
<use data-text="3" xlink:href="#font_1_51" transform="matrix(16,0,0,-16,514.5387,119.916019)" fill="#262626"/>
<use data-text="0" xlink:href="#font_1_48" transform="matrix(16,0,0,-16,524.7147,119.916019)" fill="#262626"/>
<use data-text="3" xlink:href="#font_1_51" transform="matrix(16,0,0,-16,514.5387,77.284427)" fill="#262626"/>
<use data-text="5" xlink:href="#font_1_53" transform="matrix(16,0,0,-16,524.7147,77.284427)" fill="#262626"/>
<use data-text="I" xlink:href="#font_1_73" transform="matrix(0,-20,-20,-0,554.1168,335.3128)" fill="#262626"/>
<use data-text="n" xlink:href="#font_1_110" transform="matrix(0,-20,-20,-0,554.1168,329.4128)" fill="#262626"/>
<use data-text="f" xlink:href="#font_1_102" transform="matrix(0,-20,-20,-0,554.1168,316.7328)" fill="#262626"/>
<use data-text="e" xlink:href="#font_1_101" transform="matrix(0,-20,-20,-0,554.1168,309.6928)" fill="#262626"/>
<use data-text="r" xlink:href="#font_1_114" transform="matrix(0,-20,-20,-0,554.1168,297.3928)" fill="#262626"/>
<use data-text="e" xlink:href="#font_1_101" transform="matrix(0,-20,-20,-0,554.1168,289.6103)" fill="#262626"/>
<use data-text="n" xlink:href="#font_1_110" transform="matrix(0,-20,-20,-0,554.1168,277.3103)" fill="#262626"/>
<use data-text="c" xlink:href="#font_1_99" transform="matrix(0,-20,-20,-0,554.1168,264.6303)" fill="#262626"/>
<use data-text="e" xlink:href="#font_1_101" transform="matrix(0,-20,-20,-0,554.1168,253.63031)" fill="#262626"/>
<use data-text=" " xlink:href="#font_1_32" transform="matrix(0,-20,-20,-0,554.1168,241.33029)" fill="#262626"/>
<use data-text="S" xlink:href="#font_1_83" transform="matrix(0,-20,-20,-0,554.1168,234.9703)" fill="#262626"/>
<use data-text="p" xlink:href="#font_1_112" transform="matrix(0,-20,-20,-0,554.1168,222.2703)" fill="#262626"/>
<use data-text="e" xlink:href="#font_1_101" transform="matrix(0,-20,-20,-0,554.1168,209.5703)" fill="#262626"/>
<use data-text="e" xlink:href="#font_1_101" transform="matrix(0,-20,-20,-0,554.1168,197.2703)" fill="#262626"/>
<use data-text="d" xlink:href="#font_1_100" transform="matrix(0,-20,-20,-0,554.1168,184.97029)" fill="#262626"/>
<use data-text=" " xlink:href="#font_1_32" transform="matrix(0,-20,-20,-0,554.1168,172.2703)" fill="#262626"/>
<use data-text="(" xlink:href="#font_1_40" transform="matrix(0,-20,-20,-0,554.1168,165.9103)" fill="#262626"/>
<use data-text="F" xlink:href="#font_1_70" transform="matrix(0,-20,-20,-0,554.1168,158.11029)" fill="#262626"/>
<use data-text="P" xlink:href="#font_1_80" transform="matrix(0,-20,-20,-0,554.1168,146.61029)" fill="#262626"/>
<use data-text="S" xlink:href="#font_1_83" transform="matrix(0,-20,-20,-0,554.1168,134.5503)" fill="#262626"/>
<use data-text=")" xlink:href="#font_1_41" transform="matrix(0,-20,-20,-0,554.1168,121.850299)" fill="#262626"/>
<path transform="matrix(1,0,0,-1,0,458.59938)" stroke-width="1.25" stroke-linecap="square" stroke-miterlimit="10" stroke-linejoin="miter" fill="none" stroke="#262626" d="M53.62693 71.91937V395.91938"/>
<path transform="matrix(1,0,0,-1,0,458.59938)" stroke-width="1.25" stroke-linecap="square" stroke-miterlimit="10" stroke-linejoin="miter" fill="none" stroke="#262626" d="M511.0387 71.91937V395.91938"/>
<path transform="matrix(1,0,0,-1,0,458.59938)" stroke-width="1.25" stroke-linecap="square" stroke-miterlimit="10" stroke-linejoin="miter" fill="none" stroke="#262626" d="M53.62693 71.91937H511.0387"/>
<path transform="matrix(1,0,0,-1,0,458.59938)" stroke-width="1.25" stroke-linecap="square" stroke-miterlimit="10" stroke-linejoin="miter" fill="none" stroke="#262626" d="M53.62693 395.91938H511.0387"/>
<use data-text="0" xlink:href="#font_1_48" transform="matrix(18,0,0,-18,98.71448,357.03053)" fill="#e74c3c"/>
<use data-text="." xlink:href="#font_1_46" transform="matrix(18,0,0,-18,110.162479,357.03053)" fill="#e74c3c"/>
<use data-text="0" xlink:href="#font_1_48" transform="matrix(18,0,0,-18,115.886478,357.03053)" fill="#e74c3c"/>
<use data-text="7" xlink:href="#font_1_55" transform="matrix(18,0,0,-18,127.33448,357.03053)" fill="#e74c3c"/>
<use data-text="0" xlink:href="#font_1_48" transform="matrix(18,0,0,-18,211.10066,357.20106)" fill="#e74c3c"/>
<use data-text="." xlink:href="#font_1_46" transform="matrix(18,0,0,-18,222.54866,357.20106)" fill="#e74c3c"/>
<use data-text="0" xlink:href="#font_1_48" transform="matrix(18,0,0,-18,228.27266,357.20106)" fill="#e74c3c"/>
<use data-text="5" xlink:href="#font_1_53" transform="matrix(18,0,0,-18,239.72068,357.20106)" fill="#e74c3c"/>
<use data-text="4" xlink:href="#font_1_52" transform="matrix(18,0,0,-18,323.48686,348.61579)" fill="#e74c3c"/>
<use data-text="." xlink:href="#font_1_46" transform="matrix(18,0,0,-18,334.93486,348.61579)" fill="#e74c3c"/>
<use data-text="8" xlink:href="#font_1_56" transform="matrix(18,0,0,-18,340.65885,348.61579)" fill="#e74c3c"/>
<use data-text="1" xlink:href="#font_1_49" transform="matrix(18,0,0,-18,352.10685,348.61579)" fill="#e74c3c"/>
<use data-text="3" xlink:href="#font_1_51" transform="matrix(18,0,0,-18,435.87303,89.0484)" fill="#e74c3c"/>
<use data-text="1" xlink:href="#font_1_49" transform="matrix(18,0,0,-18,447.321,89.0484)" fill="#e74c3c"/>
<use data-text="." xlink:href="#font_1_46" transform="matrix(18,0,0,-18,458.769,89.0484)" fill="#e74c3c"/>
<use data-text="5" xlink:href="#font_1_53" transform="matrix(18,0,0,-18,464.493,89.0484)" fill="#e74c3c"/>
<g clip-path="url(#clip_12)">
<path transform="matrix(1,0,0,-1,0,458.59938)" stroke-width="2" stroke-linecap="round" stroke-linejoin="round" fill="none" stroke="#e74c3c" d="M113.75354 89.56885 226.13973 89.39832 338.5259 129.98358 450.91209 357.55097"/>
<g clip-path="url(#clip_13)">
<path transform="matrix(1,0,0,-1,113.75354,369.03053)" d="M0-4.242641 4.242641 0 0 4.242641-4.242641 0Z" fill="#e74c3c"/>
<path transform="matrix(1,0,0,-1,113.75354,369.03053)" stroke-width="1" stroke-linecap="butt" stroke-miterlimit="10" stroke-linejoin="miter" fill="none" stroke="#e74c3c" d="M0-4.242641 4.242641 0 0 4.242641-4.242641 0Z"/>
</g>
<g clip-path="url(#clip_14)">
<path transform="matrix(1,0,0,-1,226.13973,369.20106)" d="M0-4.242641 4.242641 0 0 4.242641-4.242641 0Z" fill="#e74c3c"/>
<path transform="matrix(1,0,0,-1,226.13973,369.20106)" stroke-width="1" stroke-linecap="butt" stroke-miterlimit="10" stroke-linejoin="miter" fill="none" stroke="#e74c3c" d="M0-4.242641 4.242641 0 0 4.242641-4.242641 0Z"/>
</g>
<g clip-path="url(#clip_15)">
<path transform="matrix(1,0,0,-1,338.5259,328.61579)" d="M0-4.242641 4.242641 0 0 4.242641-4.242641 0Z" fill="#e74c3c"/>
<path transform="matrix(1,0,0,-1,338.5259,328.61579)" stroke-width="1" stroke-linecap="butt" stroke-miterlimit="10" stroke-linejoin="miter" fill="none" stroke="#e74c3c" d="M0-4.242641 4.242641 0 0 4.242641-4.242641 0Z"/>
</g>
<g clip-path="url(#clip_16)">
<path transform="matrix(1,0,0,-1,450.9121,101.048419)" d="M0-4.242641 4.242641 0 0 4.242641-4.242641 0Z" fill="#e74c3c"/>
<path transform="matrix(1,0,0,-1,450.9121,101.048419)" stroke-width="1" stroke-linecap="butt" stroke-miterlimit="10" stroke-linejoin="miter" fill="none" stroke="#e74c3c" d="M0-4.242641 4.242641 0 0 4.242641-4.242641 0Z"/>
</g>
</g>
<path transform="matrix(1,0,0,-1,0,458.59938)" d="M643.6881 71.91937H986.74697V395.91938H643.6881Z" fill="#ffffff"/>
<g clip-path="url(#clip_17)">
<path transform="matrix(1,0,0,-1,0,458.59938)" stroke-width=".8" stroke-linecap="butt" stroke-dasharray="2.96,1.28" stroke-linejoin="round" fill="none" stroke="#cccccc" stroke-opacity=".5" d="M658.3906 71.91937V395.91938"/>
</g>
<use data-text="0" xlink:href="#font_1_48" transform="matrix(16,0,0,-16,653.2969,402.33625)" fill="#262626"/>
<g clip-path="url(#clip_18)">
<path transform="matrix(1,0,0,-1,0,458.59938)" stroke-width=".8" stroke-linecap="butt" stroke-dasharray="2.96,1.28" stroke-linejoin="round" fill="none" stroke="#cccccc" stroke-opacity=".5" d="M707.39907 71.91937V395.91938"/>
</g>
<use data-text="5" xlink:href="#font_1_53" transform="matrix(16,0,0,-16,702.3053,402.33625)" fill="#262626"/>
<g clip-path="url(#clip_19)">
<path transform="matrix(1,0,0,-1,0,458.59938)" stroke-width=".8" stroke-linecap="butt" stroke-dasharray="2.96,1.28" stroke-linejoin="round" fill="none" stroke="#cccccc" stroke-opacity=".5" d="M756.4074 71.91937V395.91938"/>
</g>
<use data-text="1" xlink:href="#font_1_49" transform="matrix(16,0,0,-16,746.2199,402.33625)" fill="#262626"/>
<use data-text="0" xlink:href="#font_1_48" transform="matrix(16,0,0,-16,756.39596,402.33625)" fill="#262626"/>
<g clip-path="url(#clip_20)">
<path transform="matrix(1,0,0,-1,0,458.59938)" stroke-width=".8" stroke-linecap="butt" stroke-dasharray="2.96,1.28" stroke-linejoin="round" fill="none" stroke="#cccccc" stroke-opacity=".5" d="M805.41586 71.91937V395.91938"/>
</g>
<use data-text="1" xlink:href="#font_1_49" transform="matrix(16,0,0,-16,795.22836,402.33625)" fill="#262626"/>
<use data-text="5" xlink:href="#font_1_53" transform="matrix(16,0,0,-16,805.40438,402.33625)" fill="#262626"/>
<g clip-path="url(#clip_21)">
<path transform="matrix(1,0,0,-1,0,458.59938)" stroke-width=".8" stroke-linecap="butt" stroke-dasharray="2.96,1.28" stroke-linejoin="round" fill="none" stroke="#cccccc" stroke-opacity=".5" d="M854.42428 71.91937V395.91938"/>
</g>
<use data-text="2" xlink:href="#font_1_50" transform="matrix(16,0,0,-16,844.23678,402.33625)" fill="#262626"/>
<use data-text="0" xlink:href="#font_1_48" transform="matrix(16,0,0,-16,854.4128,402.33625)" fill="#262626"/>
<g clip-path="url(#clip_22)">
<path transform="matrix(1,0,0,-1,0,458.59938)" stroke-width=".8" stroke-linecap="butt" stroke-dasharray="2.96,1.28" stroke-linejoin="round" fill="none" stroke="#cccccc" stroke-opacity=".5" d="M903.4326 71.91937V395.91938"/>
</g>
<use data-text="2" xlink:href="#font_1_50" transform="matrix(16,0,0,-16,893.2451,402.33625)" fill="#262626"/>
<use data-text="5" xlink:href="#font_1_53" transform="matrix(16,0,0,-16,903.42117,402.33625)" fill="#262626"/>
<g clip-path="url(#clip_23)">
<path transform="matrix(1,0,0,-1,0,458.59938)" stroke-width=".8" stroke-linecap="butt" stroke-dasharray="2.96,1.28" stroke-linejoin="round" fill="none" stroke="#cccccc" stroke-opacity=".5" d="M952.44107 71.91937V395.91938"/>
</g>
<use data-text="3" xlink:href="#font_1_51" transform="matrix(16,0,0,-16,942.25357,402.33625)" fill="#262626"/>
<use data-text="0" xlink:href="#font_1_48" transform="matrix(16,0,0,-16,952.42959,402.33625)" fill="#262626"/>
<use data-text="I" xlink:href="#font_1_73" transform="matrix(20,0,0,-20,704.5847,424.8675)" fill="#262626"/>
<use data-text="n" xlink:href="#font_1_110" transform="matrix(20,0,0,-20,710.48477,424.8675)" fill="#262626"/>
<use data-text="f" xlink:href="#font_1_102" transform="matrix(20,0,0,-20,723.16476,424.8675)" fill="#262626"/>
<use data-text="e" xlink:href="#font_1_101" transform="matrix(20,0,0,-20,730.2047,424.8675)" fill="#262626"/>
<use data-text="r" xlink:href="#font_1_114" transform="matrix(20,0,0,-20,742.5047,424.8675)" fill="#262626"/>
<use data-text="e" xlink:href="#font_1_101" transform="matrix(20,0,0,-20,750.28726,424.8675)" fill="#262626"/>
<use data-text="n" xlink:href="#font_1_110" transform="matrix(20,0,0,-20,762.5872,424.8675)" fill="#262626"/>
<use data-text="c" xlink:href="#font_1_99" transform="matrix(20,0,0,-20,775.2672,424.8675)" fill="#262626"/>
<use data-text="e" xlink:href="#font_1_101" transform="matrix(20,0,0,-20,786.2672,424.8675)" fill="#262626"/>
<use data-text=" " xlink:href="#font_1_32" transform="matrix(20,0,0,-20,798.5672,424.8675)" fill="#262626"/>
<use data-text="S" xlink:href="#font_1_83" transform="matrix(20,0,0,-20,804.92727,424.8675)" fill="#262626"/>
<use data-text="p" xlink:href="#font_1_112" transform="matrix(20,0,0,-20,817.6272,424.8675)" fill="#262626"/>
<use data-text="e" xlink:href="#font_1_101" transform="matrix(20,0,0,-20,830.3272,424.8675)" fill="#262626"/>
<use data-text="e" xlink:href="#font_1_101" transform="matrix(20,0,0,-20,842.6272,424.8675)" fill="#262626"/>
<use data-text="d" xlink:href="#font_1_100" transform="matrix(20,0,0,-20,854.92727,424.8675)" fill="#262626"/>
<use data-text=" " xlink:href="#font_1_32" transform="matrix(20,0,0,-20,867.6272,424.8675)" fill="#262626"/>
<use data-text="(" xlink:href="#font_1_40" transform="matrix(20,0,0,-20,873.98727,424.8675)" fill="#262626"/>
<use data-text="F" xlink:href="#font_1_70" transform="matrix(20,0,0,-20,881.78726,424.8675)" fill="#262626"/>
<use data-text="P" xlink:href="#font_1_80" transform="matrix(20,0,0,-20,893.28726,424.8675)" fill="#262626"/>
<use data-text="S" xlink:href="#font_1_83" transform="matrix(20,0,0,-20,905.3472,424.8675)" fill="#262626"/>
<use data-text=")" xlink:href="#font_1_41" transform="matrix(20,0,0,-20,918.04727,424.8675)" fill="#262626"/>
<g clip-path="url(#clip_24)">
<path transform="matrix(1,0,0,-1,0,458.59938)" stroke-width=".8" stroke-linecap="butt" stroke-dasharray="2.96,1.28" stroke-linejoin="round" fill="none" stroke="#cccccc" stroke-opacity=".5" d="M643.6881 378.40586H986.74697"/>
</g>
<use data-text="1" xlink:href="#font_1_49" transform="matrix(16,0,0,-16,604.53189,86.27164)" fill="#262626"/>
<use data-text="0" xlink:href="#font_1_48" transform="matrix(16,0,0,-16,614.7079,86.27164)" fill="#262626"/>
<use data-text="." xlink:href="#font_1_46" transform="matrix(16,0,0,-16,624.88388,86.27164)" fill="#262626"/>
<use data-text="0" xlink:href="#font_1_48" transform="matrix(16,0,0,-16,629.97189,86.27164)" fill="#262626"/>
<g clip-path="url(#clip_25)">
<path transform="matrix(1,0,0,-1,0,458.59938)" stroke-width=".8" stroke-linecap="butt" stroke-dasharray="2.96,1.28" stroke-linejoin="round" fill="none" stroke="#cccccc" stroke-opacity=".5" d="M643.6881 334.62208H986.74697"/>
</g>
<use data-text="1" xlink:href="#font_1_49" transform="matrix(16,0,0,-16,604.53189,130.05542)" fill="#262626"/>
<use data-text="2" xlink:href="#font_1_50" transform="matrix(16,0,0,-16,614.7079,130.05542)" fill="#262626"/>
<use data-text="." xlink:href="#font_1_46" transform="matrix(16,0,0,-16,624.88388,130.05542)" fill="#262626"/>
<use data-text="5" xlink:href="#font_1_53" transform="matrix(16,0,0,-16,629.97189,130.05542)" fill="#262626"/>
<g clip-path="url(#clip_26)">
<path transform="matrix(1,0,0,-1,0,458.59938)" stroke-width=".8" stroke-linecap="butt" stroke-dasharray="2.96,1.28" stroke-linejoin="round" fill="none" stroke="#cccccc" stroke-opacity=".5" d="M643.6881 290.8383H986.74697"/>
</g>
<use data-text="1" xlink:href="#font_1_49" transform="matrix(16,0,0,-16,604.53189,173.8392)" fill="#262626"/>
<use data-text="5" xlink:href="#font_1_53" transform="matrix(16,0,0,-16,614.7079,173.8392)" fill="#262626"/>
<use data-text="." xlink:href="#font_1_46" transform="matrix(16,0,0,-16,624.88388,173.8392)" fill="#262626"/>
<use data-text="0" xlink:href="#font_1_48" transform="matrix(16,0,0,-16,629.97189,173.8392)" fill="#262626"/>
<g clip-path="url(#clip_27)">
<path transform="matrix(1,0,0,-1,0,458.59938)" stroke-width=".8" stroke-linecap="butt" stroke-dasharray="2.96,1.28" stroke-linejoin="round" fill="none" stroke="#cccccc" stroke-opacity=".5" d="M643.6881 247.0545H986.74697"/>
</g>
<use data-text="1" xlink:href="#font_1_49" transform="matrix(16,0,0,-16,604.53189,217.62299)" fill="#262626"/>
<use data-text="7" xlink:href="#font_1_55" transform="matrix(16,0,0,-16,614.7079,217.62299)" fill="#262626"/>
<use data-text="." xlink:href="#font_1_46" transform="matrix(16,0,0,-16,624.88388,217.62299)" fill="#262626"/>
<use data-text="5" xlink:href="#font_1_53" transform="matrix(16,0,0,-16,629.97189,217.62299)" fill="#262626"/>
<g clip-path="url(#clip_28)">
<path transform="matrix(1,0,0,-1,0,458.59938)" stroke-width=".8" stroke-linecap="butt" stroke-dasharray="2.96,1.28" stroke-linejoin="round" fill="none" stroke="#cccccc" stroke-opacity=".5" d="M643.6881 203.27072H986.74697"/>
</g>
<use data-text="2" xlink:href="#font_1_50" transform="matrix(16,0,0,-16,604.53189,261.40678)" fill="#262626"/>
<use data-text="0" xlink:href="#font_1_48" transform="matrix(16,0,0,-16,614.7079,261.40678)" fill="#262626"/>
<use data-text="." xlink:href="#font_1_46" transform="matrix(16,0,0,-16,624.88388,261.40678)" fill="#262626"/>
<use data-text="0" xlink:href="#font_1_48" transform="matrix(16,0,0,-16,629.97189,261.40678)" fill="#262626"/>
<g clip-path="url(#clip_29)">
<path transform="matrix(1,0,0,-1,0,458.59938)" stroke-width=".8" stroke-linecap="butt" stroke-dasharray="2.96,1.28" stroke-linejoin="round" fill="none" stroke="#cccccc" stroke-opacity=".5" d="M643.6881 159.48694H986.74697"/>
</g>
<use data-text="2" xlink:href="#font_1_50" transform="matrix(16,0,0,-16,604.53189,305.19056)" fill="#262626"/>
<use data-text="2" xlink:href="#font_1_50" transform="matrix(16,0,0,-16,614.7079,305.19056)" fill="#262626"/>
<use data-text="." xlink:href="#font_1_46" transform="matrix(16,0,0,-16,624.88388,305.19056)" fill="#262626"/>
<use data-text="5" xlink:href="#font_1_53" transform="matrix(16,0,0,-16,629.97189,305.19056)" fill="#262626"/>
<g clip-path="url(#clip_30)">
<path transform="matrix(1,0,0,-1,0,458.59938)" stroke-width=".8" stroke-linecap="butt" stroke-dasharray="2.96,1.28" stroke-linejoin="round" fill="none" stroke="#cccccc" stroke-opacity=".5" d="M643.6881 115.703159H986.74697"/>
</g>
<use data-text="2" xlink:href="#font_1_50" transform="matrix(16,0,0,-16,604.53189,348.97434)" fill="#262626"/>
<use data-text="5" xlink:href="#font_1_53" transform="matrix(16,0,0,-16,614.7079,348.97434)" fill="#262626"/>
<use data-text="." xlink:href="#font_1_46" transform="matrix(16,0,0,-16,624.88388,348.97434)" fill="#262626"/>
<use data-text="0" xlink:href="#font_1_48" transform="matrix(16,0,0,-16,629.97189,348.97434)" fill="#262626"/>
<g clip-path="url(#clip_31)">
<path transform="matrix(1,0,0,-1,0,458.59938)" stroke-width=".8" stroke-linecap="butt" stroke-dasharray="2.96,1.28" stroke-linejoin="round" fill="none" stroke="#cccccc" stroke-opacity=".5" d="M643.6881 71.91937H986.74697"/>
</g>
<use data-text="2" xlink:href="#font_1_50" transform="matrix(16,0,0,-16,604.53189,392.75813)" fill="#262626"/>
<use data-text="7" xlink:href="#font_1_55" transform="matrix(16,0,0,-16,614.7079,392.75813)" fill="#262626"/>
<use data-text="." xlink:href="#font_1_46" transform="matrix(16,0,0,-16,624.88388,392.75813)" fill="#262626"/>
<use data-text="5" xlink:href="#font_1_53" transform="matrix(16,0,0,-16,629.97189,392.75813)" fill="#262626"/>
<use data-text="C" xlink:href="#font_1_67" transform="matrix(0,-20,-20,-0,595.5475,270.18)" fill="#262626"/>
<use data-text="D" xlink:href="#font_1_68" transform="matrix(0,-20,-20,-0,595.5475,256.21516)" fill="#262626"/>
<use data-text="c" xlink:href="#font_11_99" transform="matrix(0,-14,-14,-0,598.82876,240.62335)" fill="#262626"/>
<use data-text=" " xlink:href="#font_1_32" transform="matrix(0,-20,-20,-0,595.5475,232.37921)" fill="#262626"/>
<use data-text="(" xlink:href="#font_1_40" transform="matrix(0,-20,-20,-0,595.5475,226.02179)" fill="#262626"/>
<use data-text="c" xlink:href="#font_1_99" transform="matrix(0,-20,-20,-0,595.5475,218.21906)" fill="#262626"/>
<use data-text="m" xlink:href="#font_1_109" transform="matrix(0,-20,-20,-0,595.5475,207.22296)" fill="#262626"/>
<use data-text=")" xlink:href="#font_1_41" transform="matrix(0,-20,-20,-0,595.5475,187.74054)" fill="#262626"/>
<path transform="matrix(1,0,0,-1,0,458.59938)" stroke-width="1.25" stroke-linecap="square" stroke-miterlimit="10" stroke-linejoin="miter" fill="none" stroke="#262626" d="M643.6881 71.91937V395.91938"/>
<path transform="matrix(1,0,0,-1,0,458.59938)" stroke-width="1.25" stroke-linecap="square" stroke-miterlimit="10" stroke-linejoin="miter" fill="none" stroke="#262626" d="M986.74697 71.91937V395.91938"/>
<path transform="matrix(1,0,0,-1,0,458.59938)" stroke-width="1.25" stroke-linecap="square" stroke-miterlimit="10" stroke-linejoin="miter" fill="none" stroke="#262626" d="M643.6881 71.91937H986.74697"/>
<path transform="matrix(1,0,0,-1,0,458.59938)" stroke-width="1.25" stroke-linecap="square" stroke-miterlimit="10" stroke-linejoin="miter" fill="none" stroke="#262626" d="M643.6881 395.91938H986.74697"/>
<use data-text="(" xlink:href="#font_10_40" transform="matrix(20,0,0,-20,798.92068,447.2431)" fill="#262626"/>
<use data-text="b" xlink:href="#font_10_98" transform="matrix(20,0,0,-20,808.06069,447.2431)" fill="#262626"/>
<use data-text=")" xlink:href="#font_10_41" transform="matrix(20,0,0,-20,822.3807,447.2431)" fill="#262626"/>
<g clip-path="url(#clip_32)">
<g>
<path transform="matrix(1,0,0,-1,0,458.59938)" d="M659.0767 82.758068C660.754 82.758068 662.36288 83.42446 663.5489 84.61048 664.7349 85.79651 665.4013 87.40533 665.4013 89.08262 665.4013 90.75991 664.7349 92.36873 663.5489 93.554759 662.36288 94.740779 660.754 95.40717 659.0767 95.40717 657.3995 95.40717 655.79067 94.740779 654.6046 93.554759 653.4186 92.36873 652.7522 90.75991 652.7522 89.08262 652.7522 87.40533 653.4186 85.79651 654.6046 84.61048 655.79067 83.42446 657.3995 82.758068 659.0767 82.758068Z" fill="#1f77b4" fill-opacity=".8"/>
<path transform="matrix(1,0,0,-1,0,458.59938)" stroke-width="1" stroke-linecap="butt" stroke-linejoin="round" fill="none" stroke="#000000" stroke-opacity=".8" d="M659.0767 82.758068C660.754 82.758068 662.36288 83.42446 663.5489 84.61048 664.7349 85.79651 665.4013 87.40533 665.4013 89.08262 665.4013 90.75991 664.7349 92.36873 663.5489 93.554759 662.36288 94.740779 660.754 95.40717 659.0767 95.40717 657.3995 95.40717 655.79067 94.740779 654.6046 93.554759 653.4186 92.36873 652.7522 90.75991 652.7522 89.08262 652.7522 87.40533 653.4186 85.79651 654.6046 84.61048 655.79067 83.42446 657.3995 82.758068 659.0767 82.758068Z"/>
</g>
</g>
<g clip-path="url(#clip_33)">
<g>
<path transform="matrix(1,0,0,-1,0,458.59938)" d="M658.88076 343.53428C660.558 343.53428 662.1668 344.20069 663.35287 345.3867 664.5389 346.57273 665.20529 348.18156 665.20529 349.85884 665.20529 351.53614 664.5389 353.14497 663.35287 354.33097 662.1668 355.517 660.558 356.18339 658.88076 356.18339 657.2034 356.18339 655.5946 355.517 654.40859 354.33097 653.22256 353.14497 652.55618 351.53614 652.55618 349.85884 652.55618 348.18156 653.22256 346.57273 654.40859 345.3867 655.5946 344.20069 657.2034 343.53428 658.88076 343.53428Z" fill="#ff7f0e" fill-opacity=".8"/>
<path transform="matrix(1,0,0,-1,0,458.59938)" stroke-width="1" stroke-linecap="butt" stroke-linejoin="round" fill="none" stroke="#000000" stroke-opacity=".8" d="M658.88076 343.53428C660.558 343.53428 662.1668 344.20069 663.35287 345.3867 664.5389 346.57273 665.20529 348.18156 665.20529 349.85884 665.20529 351.53614 664.5389 353.14497 663.35287 354.33097 662.1668 355.517 660.558 356.18339 658.88076 356.18339 657.2034 356.18339 655.5946 355.517 654.40859 354.33097 653.22256 353.14497 652.55618 351.53614 652.55618 349.85884 652.55618 348.18156 653.22256 346.57273 654.40859 345.3867 655.5946 344.20069 657.2034 343.53428 658.88076 343.53428Z"/>
</g>
</g>
<g clip-path="url(#clip_34)">
<g>
<path transform="matrix(1,0,0,-1,0,458.59938)" d="M705.5367 150.18509C707.214 150.18509 708.8228 150.85149 710.00888 152.0375 711.1949 153.22354 711.86129 154.83235 711.86129 156.50965 711.86129 158.18694 711.1949 159.79576 710.00888 160.98178 708.8228 162.1678 707.214 162.8342 705.5367 162.8342 703.85946 162.8342 702.2506 162.1678 701.0646 160.98178 699.87857 159.79576 699.21218 158.18694 699.21218 156.50965 699.21218 154.83235 699.87857 153.22354 701.0646 152.0375 702.2506 150.85149 703.85946 150.18509 705.5367 150.18509Z" fill="#2ca02c" fill-opacity=".8"/>
<path transform="matrix(1,0,0,-1,0,458.59938)" stroke-width="1" stroke-linecap="butt" stroke-linejoin="round" fill="none" stroke="#000000" stroke-opacity=".8" d="M705.5367 150.18509C707.214 150.18509 708.8228 150.85149 710.00888 152.0375 711.1949 153.22354 711.86129 154.83235 711.86129 156.50965 711.86129 158.18694 711.1949 159.79576 710.00888 160.98178 708.8228 162.1678 707.214 162.8342 705.5367 162.8342 703.85946 162.8342 702.2506 162.1678 701.0646 160.98178 699.87857 159.79576 699.21218 158.18694 699.21218 156.50965 699.21218 154.83235 699.87857 153.22354 701.0646 152.0375 702.2506 150.85149 703.85946 150.18509 705.5367 150.18509Z"/>
</g>
</g>
<g>
<path transform="matrix(1,0,0,-1,0,458.59938)" d="M843.3157 79.91937H975.54696C977.68026 79.91937 978.74697 80.98604 978.74697 83.11938V175.45688C978.74697 177.59021 977.68026 178.65688 975.54696 178.65688H843.3157C841.1824 178.65688 840.11569 177.59021 840.11569 175.45688V83.11938C840.11569 80.98604 841.1824 79.91937 843.3157 79.91937Z" fill="#ffffff" fill-opacity=".9"/>
<path transform="matrix(1,0,0,-1,0,458.59938)" stroke-width="1" stroke-linecap="butt" stroke-miterlimit="10" stroke-linejoin="miter" fill="none" stroke="#808080" stroke-opacity=".9" d="M843.3157 79.91937H975.54696C977.68026 79.91937 978.74697 80.98604 978.74697 83.11938V175.45688C978.74697 177.59021 977.68026 178.65688 975.54696 178.65688H843.3157C841.1824 178.65688 840.11569 177.59021 840.11569 175.45688V83.11938C840.11569 80.98604 841.1824 79.91937 843.3157 79.91937Z"/>
</g>
<g>
<path transform="matrix(1,0,0,-1,0,458.59938)" d="M862.5157 157.97608C864.193 157.97608 865.8018 158.64247 866.9878 159.82849 868.1738 161.01451 868.8402 162.62334 868.8402 164.30063 868.8402 165.97792 868.1738 167.58673 866.9878 168.77277 865.8018 169.95879 864.193 170.62519 862.5157 170.62519 860.8384 170.62519 859.22958 169.95879 858.0435 168.77277 856.85757 167.58673 856.1911 165.97792 856.1911 164.30063 856.1911 162.62334 856.85757 161.01451 858.0435 159.82849 859.22958 158.64247 860.8384 157.97608 862.5157 157.97608Z" fill="#1f77b4" fill-opacity=".8"/>
<path transform="matrix(1,0,0,-1,0,458.59938)" stroke-width="1" stroke-linecap="butt" stroke-linejoin="round" fill="none" stroke="#000000" stroke-opacity=".8" d="M862.5157 157.97608C864.193 157.97608 865.8018 158.64247 866.9878 159.82849 868.1738 161.01451 868.8402 162.62334 868.8402 164.30063 868.8402 165.97792 868.1738 167.58673 866.9878 168.77277 865.8018 169.95879 864.193 170.62519 862.5157 170.62519 860.8384 170.62519 859.22958 169.95879 858.0435 168.77277 856.85757 167.58673 856.1911 165.97792 856.1911 164.30063 856.1911 162.62334 856.85757 161.01451 858.0435 159.82849 859.22958 158.64247 860.8384 157.97608 862.5157 157.97608Z"/>
</g>
<use data-text="C" xlink:href="#font_1_67" transform="matrix(16,0,0,-16,891.3157,298.49873)" fill="#262626"/>
<use data-text="H" xlink:href="#font_1_72" transform="matrix(16,0,0,-16,902.4837,298.49873)" fill="#262626"/>
<use data-text="O" xlink:href="#font_1_79" transform="matrix(16,0,0,-16,914.5157,298.49873)" fill="#262626"/>
<use data-text="R" xlink:href="#font_1_82" transform="matrix(16,0,0,-16,927.10769,298.49873)" fill="#262626"/>
<use data-text="E" xlink:href="#font_1_69" transform="matrix(16,0,0,-16,938.22769,298.49873)" fill="#262626"/>
<g>
<path transform="matrix(1,0,0,-1,0,458.59938)" d="M862.5157 134.4917C864.193 134.4917 865.8018 135.1581 866.9878 136.34412 868.1738 137.53014 868.8402 139.13896 868.8402 140.81626 868.8402 142.49355 868.1738 144.10236 866.9878 145.28839 865.8018 146.47441 864.193 147.14081 862.5157 147.14081 860.8384 147.14081 859.22958 146.47441 858.0435 145.28839 856.85757 144.10236 856.1911 142.49355 856.1911 140.81626 856.1911 139.13896 856.85757 137.53014 858.0435 136.34412 859.22958 135.1581 860.8384 134.4917 862.5157 134.4917Z" fill="#ff7f0e" fill-opacity=".8"/>
<path transform="matrix(1,0,0,-1,0,458.59938)" stroke-width="1" stroke-linecap="butt" stroke-linejoin="round" fill="none" stroke="#000000" stroke-opacity=".8" d="M862.5157 134.4917C864.193 134.4917 865.8018 135.1581 866.9878 136.34412 868.1738 137.53014 868.8402 139.13896 868.8402 140.81626 868.8402 142.49355 868.1738 144.10236 866.9878 145.28839 865.8018 146.47441 864.193 147.14081 862.5157 147.14081 860.8384 147.14081 859.22958 146.47441 858.0435 145.28839 856.85757 144.10236 856.1911 142.49355 856.1911 140.81626 856.1911 139.13896 856.85757 137.53014 858.0435 136.34412 859.22958 135.1581 860.8384 134.4917 862.5157 134.4917Z"/>
</g>
<use data-text="V" xlink:href="#font_1_86" transform="matrix(16,0,0,-16,891.3157,321.9831)" fill="#262626"/>
<use data-text="i" xlink:href="#font_1_105" transform="matrix(16,0,0,-16,901.9159,321.9831)" fill="#262626"/>
<use data-text="s" xlink:href="#font_1_115" transform="matrix(16,0,0,-16,906.36398,321.9831)" fill="#262626"/>
<use data-text="T" xlink:href="#font_1_84" transform="matrix(16,0,0,-16,914.69998,321.9831)" fill="#262626"/>
<use data-text="r" xlink:href="#font_1_114" transform="matrix(16,0,0,-16,922.1322,321.9831)" fill="#262626"/>
<use data-text="a" xlink:href="#font_1_97" transform="matrix(16,0,0,-16,928.7082,321.9831)" fill="#262626"/>
<use data-text="c" xlink:href="#font_1_99" transform="matrix(16,0,0,-16,938.5162,321.9831)" fill="#262626"/>
<use data-text="k" xlink:href="#font_1_107" transform="matrix(16,0,0,-16,947.31619,321.9831)" fill="#262626"/>
<use data-text="e" xlink:href="#font_1_101" transform="matrix(16,0,0,-16,956.0177,321.9831)" fill="#262626"/>
<use data-text="r" xlink:href="#font_1_114" transform="matrix(16,0,0,-16,965.85769,321.9831)" fill="#262626"/>
<g>
<path transform="matrix(1,0,0,-1,0,458.59938)" d="M862.5157 111.00732C864.193 111.00732 865.8018 111.67371 866.9878 112.85974 868.1738 114.04576 868.8402 115.65459 868.8402 117.33188 868.8402 119.00917 868.1738 120.61799 866.9878 121.80401 865.8018 122.990039 864.193 123.65643 862.5157 123.65643 860.8384 123.65643 859.22958 122.990039 858.0435 121.80401 856.85757 120.61799 856.1911 119.00917 856.1911 117.33188 856.1911 115.65459 856.85757 114.04576 858.0435 112.85974 859.22958 111.67371 860.8384 111.00732 862.5157 111.00732Z" fill="#2ca02c" fill-opacity=".8"/>
<path transform="matrix(1,0,0,-1,0,458.59938)" stroke-width="1" stroke-linecap="butt" stroke-linejoin="round" fill="none" stroke="#000000" stroke-opacity=".8" d="M862.5157 111.00732C864.193 111.00732 865.8018 111.67371 866.9878 112.85974 868.1738 114.04576 868.8402 115.65459 868.8402 117.33188 868.8402 119.00917 868.1738 120.61799 866.9878 121.80401 865.8018 122.990039 864.193 123.65643 862.5157 123.65643 860.8384 123.65643 859.22958 122.990039 858.0435 121.80401 856.85757 120.61799 856.1911 119.00917 856.1911 117.33188 856.1911 115.65459 856.85757 114.04576 858.0435 112.85974 859.22958 111.67371 860.8384 111.00732 862.5157 111.00732Z"/>
</g>
<use data-text="H" xlink:href="#font_1_72" transform="matrix(16,0,0,-16,891.3157,345.4675)" fill="#262626"/>
<use data-text="O" xlink:href="#font_1_79" transform="matrix(16,0,0,-16,903.34768,345.4675)" fill="#262626"/>
<use data-text="I" xlink:href="#font_1_73" transform="matrix(16,0,0,-16,915.9397,345.4675)" fill="#262626"/>
<use data-text="-" xlink:href="#font_1_45" transform="matrix(16,0,0,-16,920.65969,345.4675)" fill="#262626"/>
<use data-text="T" xlink:href="#font_1_84" transform="matrix(16,0,0,-16,924.9669,345.4675)" fill="#262626"/>
<use data-text="G" xlink:href="#font_1_71" transform="matrix(16,0,0,-16,934.7429,345.4675)" fill="#262626"/>
<path transform="matrix(1,0,0,-1,0,458.59938)" d="M862.5157 105.02784 860.00558 97.302417H851.88259L858.45419 92.52784 855.94406 84.802417 862.5157 89.57699 869.08737 84.802417 866.57717 92.52784 873.1488 97.302417H865.0258Z" fill="#ff0000"/>
<path transform="matrix(1,0,0,-1,0,458.59938)" stroke-width="1" stroke-linecap="butt" stroke-linejoin="round" fill="none" stroke="#000000" d="M862.5157 105.02784 860.00558 97.302417H851.88259L858.45419 92.52784 855.94406 84.802417 862.5157 89.57699 869.08737 84.802417 866.57717 92.52784 873.1488 97.302417H865.0258Z"/>
<use data-text="O" xlink:href="#font_1_79" transform="matrix(16,0,0,-16,891.3157,368.95188)" fill="#262626"/>
<use data-text="u" xlink:href="#font_1_117" transform="matrix(16,0,0,-16,903.90768,368.95188)" fill="#262626"/>
<use data-text="r" xlink:href="#font_1_114" transform="matrix(16,0,0,-16,914.0517,368.95188)" fill="#262626"/>
<use data-text="s" xlink:href="#font_1_115" transform="matrix(16,0,0,-16,920.6277,368.95188)" fill="#262626"/>
<g clip-path="url(#clip_35)">
<path transform="matrix(1,0,0,-1,0,458.59938)" d="M969.1039 388.5354 966.59378 380.80998H958.47079L965.0424 376.0354 962.5323 368.30998 969.1039 373.08454 975.67556 368.30998 973.1654 376.0354 979.73709 380.80998H971.6141Z" fill="#ff0000"/>
<path transform="matrix(1,0,0,-1,0,458.59938)" stroke-width="1" stroke-linecap="butt" stroke-linejoin="round" fill="none" stroke="#000000" d="M969.1039 388.5354 966.59378 380.80998H958.47079L965.0424 376.0354 962.5323 368.30998 969.1039 373.08454 975.67556 368.30998 973.1654 376.0354 979.73709 380.80998H971.6141Z"/>
</g>
</svg>
